<?xml version="1.0" ?><!DOCTYPE svg  PUBLIC '-//W3C//DTD SVG 1.1//EN'  'http://www.w3.org/Graphics/SVG/1.1/DTD/svg11.dtd'><svg enable-background="new 0 0 512 512" height="512px" id="Layer_1" version="1.1" viewBox="0 0 512 512" width="512px" xml:space="preserve" xmlns="http://www.w3.org/2000/svg" xmlns:xlink="http://www.w3.org/1999/xlink"><g><path d="M338.125,264.031l120.188-120.188c3.767-3.766,5.828-8.953,5.688-14.391   c-0.109-5.469-2.391-10.734-6.344-14.672l-44.422-44.422c-8.203-8.219-21.22-8.5-29.063-0.656L263.984,189.891L143.82,69.75   c-7.844-7.844-20.852-7.547-29.055,0.641l-44.422,44.406c-3.938,3.938-6.211,9.219-6.336,14.672   c-0.117,5.438,1.922,10.625,5.703,14.391l120.156,120.156L69.711,384.172c-7.844,7.844-7.563,20.844,0.656,29.063l44.398,44.405   c8.227,8.22,21.234,8.5,29.086,0.656l120.156-120.156l120.148,120.156c7.844,7.844,20.858,7.563,29.063-0.641l44.422-44.422   c3.953-3.953,6.22-9.22,6.345-14.656c0.108-5.453-1.938-10.641-5.703-14.406L338.125,264.031z" fill="#4D4D4D"/></g></svg>