<?xml version="1.0" encoding="utf-8"?>
<!-- Generator: Adobe Illustrator 19.0.0, SVG Export Plug-In . SVG Version: 6.00 Build 0)  -->
<svg version="1.1" id="Layer_1" xmlns="http://www.w3.org/2000/svg" xmlns:xlink="http://www.w3.org/1999/xlink" x="0px" y="0px"
	 viewBox="0 0 612 792" style="enable-background:new 0 0 612 792;" xml:space="preserve">
<style type="text/css">
	.st0{fill:#FE7C3C;}
	.st1{fill:#FE7C3B;}
</style>
<g>
	<path class="st0" d="M260.2,434.9c5.6,2.4,10.6,4.6,15.7,6.6c10.7,4.2,21.4,8,32.7,10.2c14.6,2.8,28.7,2.2,42.1-5.3
		c7.9-4.4,14-10.7,19.2-17.9c9.7-13.3,16-28.4,21.7-43.7c5.3-14.2,9.2-28.7,12.2-43.5c2-10.2,3.4-20.5,4.3-30.9
		c0.8-9.7,1.4-19.4,1-29.1c-0.8-20.9-3.5-41.5-11.4-61c-4.6-11.3-10.7-21.7-18.8-31.1c-7.8-9-17-16.1-27.4-21.7
		c-9.8-5.3-20.3-9.2-31.5-10.8c-9.3-1.3-18.7-0.9-28.1,0.3c-15.3,1.8-29.6,6.4-43.1,13.7c-9.1,4.9-17.5,10.6-25.4,17.5
		c-8.5,7.4-15.3,15.9-20.2,26c-3.6,7.5-5.6,15.4-6.2,23.8c-0.5,6.6,0.4,12.8,3.5,18.7c4,7.4,10.5,12.1,17.5,16.2
		c5.7,3.4,11.8,5.6,18.1,7.7c0.7,0.2,1.9,0,2,1.3c0.1,1.1-1,1.3-1.6,1.7c-19.1,10.4-38.2,20.9-57.2,31.3c-1.4,0.8-2.7,0.6-4-0.1
		c-5.3-2.8-10.2-6.2-14.8-10.1c-8-6.6-13.8-14.7-17.4-24.4c-2.1-5.7-3.2-11.7-3.6-17.8c-0.9-11.7,1.4-22.8,5.6-33.5
		c4.4-11.3,10.8-21.6,18.1-31.3c4.5-5.9,9.2-11.7,14.6-16.7c12.4-11.6,25.9-21.8,40.9-29.9c15.7-8.5,32.2-14.7,49.5-18.7
		c10.6-2.5,21.3-4.2,32.1-5.1c9.6-0.8,19.2-1.4,28.8-0.9c16.6,0.8,33,3.1,49,7.7c11.5,3.3,22.6,7.6,33.2,13
		c10.5,5.4,20.3,11.9,29.3,19.7c16.3,14.2,29.6,30.6,38.8,50.2c5.8,12.2,9.3,25.1,11.6,38.4c2.1,12,2.2,24,1.6,36.1
		c-1,21.2-5.7,41.8-13.6,61.5c-6.6,16.5-15.2,32-25.4,46.6c-5.7,8.2-11.9,16.1-18.6,23.6c-12.3,13.9-26,26.3-41.6,36.5
		c-19.9,13.1-41.6,21.9-65,26.5c-9.3,1.8-18.7,2.8-28.2,3.5c-20,1.4-39.6-0.5-59.1-4.9c-12.7-2.8-24.9-7.1-36.6-12.8
		c-1.5-0.7-2.7-0.9-4.3,0c-9.4,5.4-18.9,10.8-29.3,14.3c-8.4,2.8-16.9,4.5-25.8,3.8c-12.8-1-26.5-9.7-30-22.8
		c-2.5-9.4-0.6-18.3,4.1-26.6c8.4-14.9,21.9-22.2,38.1-25.3c13.3-2.5,26.5-2.3,39.8-0.2c6.3,1,12.6,2.2,18.7,3.7
		c1.7,0.4,2.6,0.1,3.7-1.1c6.2-6.9,11-14.7,14.2-23.4c3.9-10.7,5.5-22,7.7-33.1c2.2-11.2,3.8-22.5,5.8-33.8
		c2.3-12.7,4.6-25.4,7.9-37.9c4.6-17.4,11.2-34,21.4-49c9.2-13.7,21.3-24.3,35.5-32.5c12.9-7.4,26.6-12.9,41-16.8
		c1.5-0.4,2.3-0.2,3.2,0.9c5,6.4,9.9,12.9,14.9,19.3c1,1.3,0.6,1.9-0.3,2.8c-2.9,2.6-5.8,5.1-8.5,7.9c-5.7,5.9-10.4,12.5-14.3,19.7
		c-7.5,13.6-11.6,28.3-14.2,43.6c-3.4,20.2-6.8,40.4-10.9,60.5c-4.4,21.3-12.3,41.1-26.4,58c-8.3,10-18.2,18.4-28.8,25.9
		C265.4,431.3,263,432.9,260.2,434.9z"/>
	<path class="st1" d="M426.4,551.1c-9.6,0-19.3,0.3-28.9-0.1c-20.8-0.9-41.7,0.2-62.5-0.6c-20.8-0.8-41.5,0.1-62.2-0.6
		c-7.6-0.3-15.3-0.2-22.9-0.4c-15.3-0.4-28.8,10.1-31.4,25c-2.2,12.9,2,24.3,14.8,31.1c4.4,2.3,4.5,2.3,3.4,7
		c-1.3,6-1.3,5.6-7.8,6.1c-6.3,0.5-12.6,0.1-18.8-0.1c-10.3-0.3-20.4-2.2-30.3-5.2c-13.8-4.2-26.6-10.6-37.9-19.6
		c-15.9-12.7-27.2-28.7-30.7-49.2c-3.1-18.1-0.3-35.2,9.4-51c1-1.6,2.1-1.8,3.5-1c9.4,6,19.9,7.2,30.6,6.3
		c9.4-0.8,18.4-3.8,27.2-7.4c6.3-2.6,12.5-5.5,18.4-8.9c2-1.2,3.8-1.2,5.8-0.3c16.6,7.3,33.9,12,51.7,14.9c6.3,1,12.6,1.5,19,2
		c6,0.4,12,0.5,18.1,0.4c10-0.2,19.9-1.5,29.8-3.2c13.1-2.3,25.8-5.7,38.1-10.8c14.9-6.2,28.9-14,41.9-23.5
		c6.3-4.6,12.2-9.5,18-14.7c0.9-0.8,1.8-0.9,2.8-0.9c21.7,0.9,43.4,0.2,65.1,0.6c1.1,0,2.2,0.4,3.3,0.4c5.3,0.3,5.4,0.3,5.3,5.5
		c0,9.1,0.2,18.1-0.2,27.2c-0.9,20.3,0,40.6-0.6,60.8c-0.1,2.9-0.6,5.8-0.4,8.7c0.1,1.7-0.5,2-2.1,2c-9.1-0.1-18.1,0.1-27.2-0.1
		C454.7,551.2,440.6,551.1,426.4,551.1z"/>
</g>
</svg>
