<?xml version="1.0" encoding="utf-8"?>
<!-- Generator: Adobe Illustrator 19.0.0, SVG Export Plug-In . SVG Version: 6.00 Build 0)  -->
<svg version="1.1" id="Layer_1" xmlns="http://www.w3.org/2000/svg" xmlns:xlink="http://www.w3.org/1999/xlink" x="0px" y="0px"
	 viewBox="0 0 612 761.6" style="enable-background:new 0 0 612 761.6;" xml:space="preserve">
<style type="text/css">
	.st0{fill:#FE7C3C;}
	.st1{fill:#FE7C3B;}
</style>
<g>
	<path class="st0" d="M240.3,480.2c8.6,3.6,16.4,7.2,24.3,10.2c16.5,6.4,33.1,12.4,50.6,15.7c22.6,4.3,44.4,3.3,65.1-8.1
		c12.2-6.8,21.6-16.5,29.7-27.6c15-20.6,24.7-43.8,33.5-67.5c8.2-21.9,14.2-44.4,18.8-67.2c3.2-15.8,5.3-31.7,6.6-47.7
		c1.2-15,2.1-29.9,1.6-44.9c-1.2-32.3-5.4-64.1-17.7-94.3c-7.1-17.5-16.6-33.6-29.1-48.1c-12-14-26.3-25-42.3-33.5
		C366.2,59,350,52.9,332.8,50.5c-14.4-2-28.9-1.3-43.4,0.4c-23.6,2.8-45.8,9.9-66.6,21.2c-14,7.6-27.1,16.4-39.2,27
		c-13.1,11.4-23.7,24.6-31.2,40.2c-5.6,11.6-8.6,23.8-9.6,36.7c-0.8,10.2,0.6,19.8,5.4,28.8c6.1,11.5,16.2,18.7,27,25.1
		c8.8,5.2,18.3,8.7,27.9,11.8c1.1,0.3,2.9,0.1,3,1.9c0.1,1.8-1.5,2-2.5,2.6c-29.5,16.2-59,32.3-88.4,48.4c-2.2,1.2-4.1,1-6.2-0.1
		c-8.2-4.4-15.8-9.6-22.9-15.6c-12.3-10.2-21.4-22.8-26.9-37.8c-3.3-8.9-4.9-18-5.6-27.5c-1.4-18.1,2.2-35.2,8.6-51.8
		c6.8-17.5,16.6-33.4,27.9-48.4c6.9-9.2,14.2-18.1,22.6-25.9c19.2-17.9,40-33.6,63.2-46.2c24.2-13.2,49.7-22.7,76.5-29
		c16.4-3.8,32.9-6.5,49.7-7.8c14.8-1.2,29.6-2.1,44.5-1.4c25.7,1.2,51,4.8,75.7,11.9c17.8,5.1,34.9,11.7,51.3,20.1
		c16.3,8.3,31.4,18.4,45.2,30.5c25.2,21.9,45.7,47.3,60,77.6c8.9,18.9,14.4,38.8,18,59.3c3.2,18.5,3.4,37.1,2.5,55.7
		c-1.5,32.8-8.8,64.5-21,95.1c-10.2,25.6-23.4,49.5-39.2,72c-8.9,12.7-18.4,24.9-28.7,36.5c-19.1,21.5-40.2,40.6-64.3,56.4
		c-30.8,20.2-64.3,33.8-100.4,40.9c-14.4,2.8-28.9,4.3-43.6,5.3c-30.9,2.2-61.3-0.8-91.3-7.5c-19.6-4.4-38.4-11-56.5-19.7
		c-2.3-1.1-4.1-1.5-6.6,0c-14.6,8.4-29.3,16.6-45.3,22.1c-13,4.4-26.2,6.9-39.8,5.9c-19.8-1.5-40.9-15-46.3-35.3
		c-3.9-14.6-0.9-28.3,6.3-41.1c12.9-23,33.8-34.3,58.9-39.1c20.5-3.9,41-3.5,61.6-0.3c9.7,1.5,19.4,3.4,29,5.8
		c2.6,0.6,4.1,0.1,5.7-1.7c9.6-10.7,17-22.7,21.9-36.2c6.1-16.6,8.5-34,11.9-51.1c3.4-17.3,5.8-34.8,9-52.2
		c3.6-19.7,7.2-39.3,12.3-58.6c7.1-26.9,17.4-52.5,33-75.7c14.3-21.2,32.9-37.6,54.9-50.3c19.9-11.5,41.1-20,63.3-26
		c2.3-0.6,3.6-0.3,4.9,1.4c7.7,10,15.2,20,23,29.9c1.5,1.9,1,2.9-0.5,4.3c-4.4,4-8.9,7.9-13.1,12.2c-8.9,9-16,19.4-22.1,30.4
		c-11.6,21-18,43.7-21.9,67.3c-5.2,31.2-10.4,62.5-16.8,93.5c-6.7,32.8-19.1,63.5-40.8,89.6c-12.9,15.5-28.1,28.5-44.5,40.1
		C248.3,474.7,244.7,477.1,240.3,480.2z"/>
	<path class="st1" d="M497.2,656.7c-14.9,0-29.8,0.5-44.7-0.1c-32.2-1.3-64.5,0.3-96.6-0.9c-32.1-1.2-64.2,0.2-96.2-0.9
		c-11.8-0.4-23.6-0.3-35.4-0.6c-23.7-0.6-44.5,15.6-48.5,38.7c-3.5,19.9,3,37.6,22.8,48c6.9,3.6,6.9,3.5,5.3,10.9
		c-2,9.3-2.1,8.7-12,9.5c-9.8,0.8-19.4,0.1-29.1-0.2c-16-0.5-31.6-3.4-46.8-8c-21.4-6.5-41.2-16.3-58.5-30.3
		c-24.5-19.7-42-44.4-47.4-76c-4.8-27.9-0.5-54.4,14.5-78.9c1.6-2.5,3.3-2.8,5.4-1.5c14.5,9.3,30.7,11.1,47.2,9.7
		c14.6-1.2,28.5-5.8,42-11.5c9.7-4.1,19.3-8.5,28.4-13.8c3.1-1.8,5.9-1.8,9-0.5c25.6,11.3,52.4,18.5,80,23.1
		c9.7,1.6,19.5,2.4,29.3,3c9.3,0.6,18.6,0.8,27.9,0.6c15.5-0.3,30.8-2.3,46.1-4.9c20.3-3.5,39.9-8.9,58.9-16.7
		c23-9.5,44.6-21.6,64.7-36.4c9.7-7.1,18.9-14.8,27.9-22.7c1.4-1.2,2.7-1.4,4.4-1.4c33.5,1.4,67.1,0.4,100.6,0.9
		c1.7,0,3.4,0.6,5.1,0.7c8.3,0.5,8.3,0.5,8.2,8.6c0,14,0.4,28-0.2,42c-1.3,31.3-0.1,62.7-0.9,94c-0.1,4.5-0.9,9-0.6,13.5
		c0.2,2.6-0.8,3.2-3.2,3.1c-14-0.1-28,0.2-42-0.2C540.9,657,519.1,656.7,497.2,656.7z"/>
</g>
</svg>
