<?xml version="1.0" ?><!DOCTYPE svg  PUBLIC '-//W3C//DTD SVG 1.1//EN'  'http://www.w3.org/Graphics/SVG/1.1/DTD/svg11.dtd'><svg enable-background="new -0.5 -0.5 66 66" height="66px" overflow="visible" version="1.1" viewBox="-0.5 -0.5 66 66" width="66px" xml:space="preserve" xmlns="http://www.w3.org/2000/svg" xmlns:xlink="http://www.w3.org/1999/xlink"><defs/><path d="M46.078,20.588c-0.122,0.139-0.266,0.261-0.431,0.365l-9.995,6.225c-0.609,0.381-1.408,0.428-2.07,0.121  c-0.661-0.306-1.076-0.913-1.076-1.576L32.5,13.278c0-0.662,0.414-1.27,1.076-1.577c0.661-0.307,1.459-0.26,2.07,0.119l10,6.219  c0.536,0.333,0.854,0.876,0.854,1.456C46.5,19.896,46.348,20.279,46.078,20.588z" fill="#15AE67"/><path d="M32.5,50.5c-9.374,0-17-7.626-17-17s7.626-17,17-17c1.657,0,3,1.343,3,3s-1.343,3-3,3  c-6.065,0-11,4.935-11,11s4.935,11,11,11s11-4.935,11-11c0-1.657,1.343-3,3-3s3,1.343,3,3C49.5,42.874,41.874,50.5,32.5,50.5z" fill="#15AE67"/></svg>