<?xml version="1.0" encoding="utf-8"?>
<!-- Generator: Adobe Illustrator 19.0.0, SVG Export Plug-In . SVG Version: 6.00 Build 0)  -->
<svg version="1.1" id="Livello_1" xmlns="http://www.w3.org/2000/svg" xmlns:xlink="http://www.w3.org/1999/xlink" x="0px" y="0px"
	 viewBox="-408 210.3 141.7 141.7" style="enable-background:new -408 210.3 141.7 141.7;" xml:space="preserve">
<style type="text/css">
	.st0{fill:#FE7C3B;}
</style>
<g id="Livello_29">
	<path class="st0" d="M-302.4,333c3.4,3.4,3.4,8.9,0,12.3c-3.4,3.4-8.9,3.4-12.3,0c0,0,0,0-0.1-0.1l0,0l-57.7-57.7l0,0
		c-1.6-1.6-2.6-3.8-2.6-6.2c0-2.7,1.3-5.2,3.2-6.8l-0.1-0.1l57.7-57.7l0,0c0,0,0,0,0.1-0.1c3.4-3.4,8.9-3.4,12.3,0
		c3.4,3.4,3.4,8.9,0,12.3c0,0,0,0-0.1,0.1l0,0l-52.1,52.1L-302.4,333L-302.4,333C-302.4,333-302.4,333-302.4,333"/>
</g>
<g id="Livello_1_1_">
</g>
</svg>
