<?xml version="1.0" ?><!DOCTYPE svg  PUBLIC '-//W3C//DTD SVG 1.1//EN'  'http://www.w3.org/Graphics/SVG/1.1/DTD/svg11.dtd'><svg enable-background="new 0 0 100 100" height="100px" version="1.1" viewBox="0 0 100 100" width="100px" xml:space="preserve" xmlns="http://www.w3.org/2000/svg" xmlns:xlink="http://www.w3.org/1999/xlink"><g id="Guides"/><g id="_x32_0_icons"><path d="M5,49.999C5,74.813,25.188,95,50,95s45-20.188,45-45.001C95,25.188,74.813,5,50,5S5,25.188,5,49.999z    M9.376,49.999C9.376,27.6,27.6,9.376,50,9.376S90.624,27.6,90.624,49.999c0,22.4-18.224,40.625-40.624,40.625   S9.376,72.399,9.376,49.999z" fill="#323232"/><path d="M49.268,28.379L49.268,28.379c0.855,0.855,0.854,2.241-0.001,3.096L32.926,47.813h40.098   c1.209,0,2.188,0.979,2.188,2.187c0,1.21-0.979,2.188-2.188,2.188H32.926l16.341,16.338c0.855,0.854,0.856,2.238,0.001,3.094l0,0   c-0.854,0.854-2.239,0.854-3.094,0.002L26.769,52.22c-1.225-1.225-1.225-3.217,0-4.44l19.405-19.4   C47.028,27.524,48.413,27.524,49.268,28.379z" fill="#0578B9"/></g></svg>